<?xml version="1.0" encoding="UTF-8"?>
<svg id="Layer_1" data-name="Layer 1" xmlns="http://www.w3.org/2000/svg" viewBox="0 0 266.04 117.15">
  <defs>
    <style>
      .cls-1 {
        letter-spacing: 0em;
      }

      .cls-2 {
        letter-spacing: 0em;
      }

      .cls-3 {
        letter-spacing: -.04em;
      }

      .cls-4 {
        letter-spacing: -.05em;
      }

      .cls-5 {
        letter-spacing: 0em;
      }

      .cls-6 {
        letter-spacing: -.04em;
      }

      .cls-7 {
        fill: none;
      }

      .cls-7, .cls-8 {
        stroke-width: 0px;
      }

      .cls-9 {
        letter-spacing: 0em;
      }

      .cls-10 {
        letter-spacing: -.03em;
      }

      .cls-11 {
        letter-spacing: -.05em;
      }

      .cls-12 {
        letter-spacing: -.05em;
      }

      .cls-13 {
        letter-spacing: -.01em;
      }

      .cls-14 {
        letter-spacing: 0em;
      }

      .cls-15 {
        letter-spacing: -.03em;
      }

      .cls-16 {
        letter-spacing: 0em;
      }

      .cls-17 {
        font-family: BloggerSans-Bold, 'Blogger Sans';
        font-size: 57px;
        font-weight: 700;
      }

      .cls-17, .cls-18 {
        fill: #231f20;
      }

      .cls-19 {
        letter-spacing: 0em;
      }

      .cls-20 {
        letter-spacing: 0em;
      }

      .cls-8 {
        fill: #00afb9;
      }

      .cls-18 {
        font-family: ArchivoNarrow-Regular, 'Archivo Narrow';
        font-size: 22.14px;
        font-variation-settings: 'wght' 400;
      }

      .cls-21 {
        letter-spacing: 0em;
      }

      .cls-22 {
        letter-spacing: -.04em;
      }

      .cls-23 {
        letter-spacing: 0em;
      }

      .cls-24 {
        letter-spacing: 0em;
      }
    </style>
  </defs>
  <g>
    <path class="cls-7" d="M169.29,77.81c1.13,8.25-2.87,16.25-.87,24.25,1,3,1,8,7,7,4-1,6-3,9-6,25-17,53-24,74-45-1.32-.74-6.94,6.94,0,0-1-2-2-4-4-5-27-17-53-34-82-45-7,6-3,15-3.03,23.3"/>
    <path class="cls-8" d="M260.02,48.14L179.45,1.63c-3.77-2.18-8.27-2.18-12.04,0-3.77,2.17-6.02,6.07-6.02,10.43v19.91c.79-1.17,2.1-1.99,3.94-1.99,1.93,0,3.28.9,4.06,2.16V12.06c0-2.11,1.41-3.15,2.02-3.5.37-.22,1.11-.56,2.04-.56.6,0,1.28.14,2,.55l80.57,46.52c1.83,1.06,2.02,2.8,2.02,3.5s-.19,2.45-2.02,3.51l-80.57,46.51c-1.83,1.06-3.44.35-4.04,0-.61-.35-2.02-1.39-2.02-3.5v-27.96c-.77,1.26-2.12,2.17-4.06,2.17s-3.16-.82-3.94-1.99v27.78c0,4.36,2.25,8.26,6.02,10.43,1.88,1.09,3.95,1.63,6.02,1.63s4.14-.54,6.02-1.63l80.57-46.52c3.77-2.17,6.02-6.07,6.02-10.43s-2.25-8.25-6.02-10.43Z"/>
  </g>
  <text class="cls-17" transform="translate(0 74.71)"><tspan class="cls-11" x="0" y="0">S</tspan><tspan class="cls-12" x="27.17" y="0">m</tspan><tspan class="cls-3" x="71.01" y="0">a</tspan><tspan class="cls-6" x="98.42" y="0">r</tspan><tspan class="cls-15" x="117.9" y="0">t</tspan><tspan class="cls-4" x="136.54" y="0">N</tspan><tspan class="cls-22" x="170.31" y="0">o</tspan><tspan class="cls-10" x="197.96" y="0">w</tspan></text>
  <text class="cls-18" transform="translate(19.48 99.61)"><tspan class="cls-1" x="0" y="0">s</tspan><tspan class="cls-9" x="8.88" y="0">m</tspan><tspan class="cls-19" x="23.85" y="0">a</tspan><tspan class="cls-14" x="34.06" y="0">l</tspan><tspan x="38.11" y="0">l </tspan><tspan class="cls-23" x="47.19" y="0">e</tspan><tspan class="cls-5" x="57.16" y="0">n</tspan><tspan class="cls-21" x="67.19" y="0">t</tspan><tspan class="cls-23" x="72.08" y="0">e</tspan><tspan class="cls-2" x="82.05" y="0">r</tspan><tspan class="cls-16" x="88.19" y="0">p</tspan><tspan class="cls-20" x="98.15" y="0">r</tspan><tspan class="cls-13" x="104.14" y="0">i</tspan><tspan class="cls-24" x="108.91" y="0">s</tspan><tspan x="117.86" y="0">e</tspan></text>
</svg>